# xmcd CD database file
#
# Track frame offsets:
#	150
#	11929
#	23897
#	37766
#	51903
#	66031
#	80774
#	93495
#	107459
#	118418
#	132013
#	152384
#	167495
#	178291
#	189763
#	201109
#	214949
#	228718
#	239876
#	252879
#	265295
#	280916
#	295254
#	311087
#	323515
#
# Disc length: 4517 seconds
#
# Revision: 0
# Processed by: cddbd v1.5PL3 Copyright (c) Steve Scherf et al.
# Submitted via: CDex 1.51
#
DISCID=6a11a319
DTITLE=Hoagy Carmichael - First of the Singer-Songwriters, Key Tracks #1 - #1 Hoagy Carmichael
DYEAR=2004
DGENRE=Jazz
TTITLE0=Wolverine Orchestra  - Riverboat Shuffle
TTITLE1=Hitch's Happy Harmonists  - Boneyard Shuffle
TTITLE2=Hitch's Happy Harmonists  - Washboard Blues
TTITLE3=Red Nichols and His Five Pennies  - Washboard Blues
TTITLE4=Red Nichols and His Five Pennies  - Boneyard Shuffle
TTITLE5=Frankie Trumbauer and His Orchestra  - Riverboat Shuffle
TTITLE6=Hoagy Carmichael and His Pals  - One Night In Havana
TTITLE7=Hoagy Carmichael and His Pals  - Star Dust
TTITLE8=Hoagy Carmichael and His Pals  - When Baby Sleeps
TTITLE9=Hoagy Carmichael and His Pals  - Friday Night
TTITLE10=Paul Whiteman and His Concert Orchestra  - Washboard Blues
TTITLE11=Jean Goldkette and His Orchestra  - So Tired
TTITLE12=Carmichael's Collegians  - March Of The Hoodlums
TTITLE13=Carmichaael's Collegians  - Walkin The Dog
TTITLE14=Carmichael's Collegians  - Shimme-Sha-Wabble
TTITLE15=Carmichael's Collegians  - Smile
TTITLE16=The Chocolate Dandies  - Star Dust
TTITLE17=Mill's Merry Makers  - Star Dust
TTITLE18=Hoagy Carmichael and His Orchestra  - March Of The Hoodlums
TTITLE19=Hoagy Carmichael and His Orchestra  - Walkin' The Dog
TTITLE20=Hoagy Carmichael and His Orchestra  - Rockin' Chair
TTITLE21=Irving Mills and His Hotsy-Totsy Gang  - Harvey
TTITLE22=Irving Mills and His Hotsy-Totsy Gang  - Star Dust
TTITLE23=Irving Mills and His Hotsy-Totsy Gang  - March Of The Hoodlums
TTITLE24=Ed Lang and His Orchestra  - March Of The Hoodlums
EXTD=YEAR: 2004
EXTT0=
EXTT1=
EXTT2=
EXTT3=
EXTT4=
EXTT5=
EXTT6=
EXTT7=
EXTT8=
EXTT9=
EXTT10=
EXTT11=
EXTT12=
EXTT13=
EXTT14=
EXTT15=
EXTT16=
EXTT17=
EXTT18=
EXTT19=
EXTT20=
EXTT21=
EXTT22=
EXTT23=
EXTT24=
PLAYORDER=
